solid OpenSCAD_Model
  facet normal -1 0 0
    outer loop
      vertex -5 -5 -9.72182
      vertex -5 5 9.72182
      vertex -5 5 -9.72182
    endloop
  endfacet
  facet normal -1 -0 0
    outer loop
      vertex -5 5 9.72182
      vertex -5 -5 -9.72182
      vertex -5 -5 9.72182
    endloop
  endfacet
  facet normal 1 -0 0
    outer loop
      vertex 5 -5 9.72182
      vertex 5 5 -9.72182
      vertex 5 5 9.72182
    endloop
  endfacet
  facet normal 1 0 0
    outer loop
      vertex 5 5 -9.72182
      vertex 5 -5 9.72182
      vertex 5 -5 -9.72182
    endloop
  endfacet
  facet normal 0 1 0
    outer loop
      vertex 5 5 9.72182
      vertex -5 5 9.72182
      vertex 0 5 14.7218
    endloop
  endfacet
  facet normal 0 1 0
    outer loop
      vertex 5 5 9.72182
      vertex -5 5 -9.72182
      vertex -5 5 9.72182
    endloop
  endfacet
  facet normal 0 1 -0
    outer loop
      vertex 5 5 -9.72182
      vertex -5 5 -9.72182
      vertex 5 5 9.72182
    endloop
  endfacet
  facet normal 0 1 0
    outer loop
      vertex -5 5 -9.72182
      vertex 5 5 -9.72182
      vertex 1.39662e-07 5 -14.7218
    endloop
  endfacet
  facet normal 0 -1 0
    outer loop
      vertex -5 -5 9.72182
      vertex 5 -5 9.72182
      vertex 0 -5 14.7218
    endloop
  endfacet
  facet normal 0 -1 0
    outer loop
      vertex -5 -5 -9.72182
      vertex 5 -5 9.72182
      vertex -5 -5 9.72182
    endloop
  endfacet
  facet normal 0 -1 0
    outer loop
      vertex -5 -5 -9.72182
      vertex 5 -5 -9.72182
      vertex 5 -5 9.72182
    endloop
  endfacet
  facet normal -0 -1 0
    outer loop
      vertex 5 -5 -9.72182
      vertex -5 -5 -9.72182
      vertex 1.39662e-07 -5 -14.7218
    endloop
  endfacet
  facet normal 0.707107 -0 0.707107
    outer loop
      vertex 0 -5 14.7218
      vertex 5 5 9.72182
      vertex 0 5 14.7218
    endloop
  endfacet
  facet normal 0.707107 0 0.707107
    outer loop
      vertex 5 5 9.72182
      vertex 0 -5 14.7218
      vertex 5 -5 9.72182
    endloop
  endfacet
  facet normal -0.707107 0 0.707107
    outer loop
      vertex -5 -5 9.72182
      vertex 0 5 14.7218
      vertex -5 5 9.72182
    endloop
  endfacet
  facet normal -0.707107 0 0.707107
    outer loop
      vertex 0 5 14.7218
      vertex -5 -5 9.72182
      vertex 0 -5 14.7218
    endloop
  endfacet
  facet normal 0.707107 0 -0.707107
    outer loop
      vertex 5 -5 -9.72182
      vertex 1.39662e-07 5 -14.7218
      vertex 5 5 -9.72182
    endloop
  endfacet
  facet normal 0.707107 0 -0.707107
    outer loop
      vertex 1.39662e-07 5 -14.7218
      vertex 5 -5 -9.72182
      vertex 1.39662e-07 -5 -14.7218
    endloop
  endfacet
  facet normal -0.707107 0 -0.707107
    outer loop
      vertex 1.39662e-07 -5 -14.7218
      vertex -5 5 -9.72182
      vertex 1.39662e-07 5 -14.7218
    endloop
  endfacet
  facet normal -0.707107 -0 -0.707107
    outer loop
      vertex -5 5 -9.72182
      vertex 1.39662e-07 -5 -14.7218
      vertex -5 -5 -9.72182
    endloop
  endfacet
endsolid OpenSCAD_Model
